<svg id="Layer_1" data-name="Layer 1" xmlns="http://www.w3.org/2000/svg" viewBox="0 0 622.8 155.52"><title>logo</title><path d="M153.81,79.36A76.16,76.16,0,1,1,77.65,3.21,76.25,76.25,0,0,1,153.81,79.36ZM77.65,35A44.37,44.37,0,1,0,122,79.36,44.42,44.42,0,0,0,77.65,35Z"/><path d="M324.2,94.58l-2.58,8a76.7,76.7,0,0,1-148.8-12.45A77.9,77.9,0,0,1,172,78.84,76.67,76.67,0,0,1,248.68,2.17a76,76,0,0,1,46.47,15.68,77.11,77.11,0,0,1,27.18,39.66l2.25,7.78H291l-1.57-3.7A44.23,44.23,0,1,0,288.5,98l1.67-3.43Z"/><path d="M465.14,2.7V35.16H327.47V2.7ZM379,155.52V57.8h32.47v97.72Z"/><path d="M500.12,55.92l20.43,36.66-33.09,59.8-1.74,3.14H445l5-9Zm121.8,99.6H581.2l-1.74-3.14L549,97.3l-14.93-27-.6-1.08L513,32.59l.07-.12,1.63-2.95L528,5.52l1.56-3.38h7.8l1.51,3.36,13.3,24,64.74,117Z"/></svg>